<?xml version="1.0" encoding="utf-8"?>
<!-- Generator: Adobe Illustrator 18.0.0, SVG Export Plug-In . SVG Version: 6.00 Build 0)  -->
<!DOCTYPE svg PUBLIC "-//W3C//DTD SVG 1.1//EN" "http://www.w3.org/Graphics/SVG/1.1/DTD/svg11.dtd">
<svg version="1.1" id="code4web" xmlns="http://www.w3.org/2000/svg" xmlns:xlink="http://www.w3.org/1999/xlink" x="0px" y="0px"
	 viewBox="0 0 439.4 198.4" enable-background="new 0 0 439.4 198.4" xml:space="preserve">
<path id="four" fill-rule="evenodd" clip-rule="evenodd" fill="#FF3F00" d="M303.7,125.1c1.6-3.9,2.3-7,2.3-9.4c0-2.6-0.9-4-2.7-4.3
	c-1.6-0.3-4.5-0.6-8.8-1c-4.3-0.4-9-0.7-14.2-1c-5.2-0.2-10.5-0.4-16-0.6c-5.5-0.1-10.3-0.2-14.4-0.2c6.7-12.5,12.8-23.2,18.1-32.1
	c5.3-9,16.6-29,21.1-35.5c2.8-4.4,1.4-4.9-3.1-2.1c-3.8,2.2-16.6,19-20.3,24.3c-8.2,11.8-17.7,27-28.7,45.4
	c-6.8,0-15.5,0.1-26.1,0.2c-10.7,0.1-12.5,0.5-24.2,1c-1.3,0-2-0.3-2.1-0.8c-0.2-0.5,0.3-1,1.4-1.6l23-15.6c1-0.7,1.6-1.2,1.9-1.5
	c3.1-2.1,6.8-4.7,11-7.6c35.5-24.8,45.6-38.4,48.9-40.9c10.4-8.1,18.3-19.7,20.5-25.6c0.3-0.8,0.5-2.5,0.5-5.1l-6.6,6.2l-13.1-0.7
	c-13.3,14.7-24.7,30-31,36.7c-30.2,28.7-41.4,41.4-61.6,52.1c-3.7,2.1-6.2,3.4-7.6,3.9c-1.4,0.5-2.8,0.9-4.1,1.2
	c-2.6,0.5-3.9,1.7-3.9,3.5c0,2.3-0.4,5.3-1.2,9c0,1.1,0.4,1.6,1.2,1.6c7.3-1.6,14.8-2.8,22.6-3.9c7.8-1,15.2-1.8,22.2-2.3
	c7-0.5,4.1-0.9,10-1.2c5.8-0.2,10.3-0.4,13.5-0.4c-1.8,2.9-4.5,7.6-8,14.2c-3.5,6.6-7.1,13.3-10.7,20.1c-1.3,2.6-2,4.9-2,7
	c0,2.6,0.9,4.9,2.7,7c1.6,2.1,3.1,4.2,4.5,6.4c1.4,2.2,2.7,4.3,3.7,6.4c1.6,0,2.3-0.5,2.3-1.6c-0.5-0.8-0.8-1.7-0.8-2.7v-2.3
	c0-2.3,0.6-5.6,1.9-9.7c1.3-4.1,3-8.8,5.1-13.8c2.1-5.1,4.4-10.2,7-15.6c2.6-5.3,5.2-10.4,7.8-15.4c3.9,0,8.2,0.1,12.9,0.4
	c4.7,0.3,9.3,0.7,13.8,1.4c4.5,0.7,8.8,1.4,12.9,2.1c4,0.8,7.3,1.6,10,2.3c2.3,0.8,3.5,2.1,3.5,3.9c0,2.1-0.8,4.2-2.3,6.2
	c0,0.5,0.3,0.9,0.8,1.2c0.5,0.3,1,0.1,1.6-0.4C300.4,132,302.1,129,303.7,125.1z"/>
<g id="code">
	<path id="code-1c" d="M30.3,122.2c-7,0-12.1-1.5-15.4-4.6c-3.3-3-4.9-7.3-4.9-12.9V92.3c0-5.9,1.8-10.4,5.5-13.3
		c3.7-2.9,8.6-4.4,14.7-4.4c6,0,10.6,1.3,13.7,3.9c3.1,2.6,4.9,6.6,5.3,11.9l-7.5,0.5c-0.3-3.7-1.3-6.2-3.1-7.5
		c-1.8-1.3-4.6-1.9-8.5-1.9c-4,0-7.1,0.8-9.2,2.5c-2.2,1.6-3.2,4.4-3.2,8.4v12.4c0,3.7,1.1,6.4,3.2,8.1c2.2,1.6,5.3,2.5,9.4,2.5
		c3.8,0,6.6-0.5,8.4-1.5c1.8-1,2.8-3.1,3-6.3l7.5,0.5c-0.4,4.9-2.1,8.5-5.3,10.8C40.8,121,36.3,122.2,30.3,122.2z"/>
	<path id="code-2o" d="M83,122.2c-5.7,0-10.4-1.4-13.9-4.3c-3.5-2.8-5.3-7.2-5.3-13.2V92.3c0-6,1.8-10.4,5.3-13.4
		c3.6-2.9,8.2-4.4,13.9-4.4c5.7,0,10.4,1.5,13.9,4.4c3.5,2.9,5.3,7.4,5.3,13.4v12.4c0,5.9-1.8,10.3-5.3,13.2
		C93.3,120.8,88.7,122.2,83,122.2z M83,115.3c3.8,0,6.7-0.8,8.6-2.5c1.9-1.6,2.9-4.3,2.9-8.1V92.3c0-3.7-1-6.4-2.9-8.2
		c-1.9-1.8-4.8-2.6-8.6-2.6s-6.7,0.9-8.6,2.6c-1.9,1.8-2.9,4.5-2.9,8.2v12.4c0,3.7,1,6.4,2.9,8.1C76.3,114.5,79.1,115.3,83,115.3z"
		/>
	<path id="code-3d" d="M145.9,113.8c-1.3,2.7-3.1,4.7-5.5,6.2c-2.3,1.5-5,2.2-8,2.2c-4.5,0-8.1-1.5-10.9-4.6
		c-2.7-3-4.1-7.4-4.1-12.9V92.2c0-5.4,1.8-9.7,5.3-12.8c3.6-3.2,8.4-4.8,14.5-4.8c2,0,4,0.2,5.8,0.6c1.8,0.4,3.5,0.9,5.1,1.6V60h7.7
		v61.4h-7.7v-7.7H145.9z M134.4,114.9c2.6,0,5-0.7,7.2-2c2.2-1.3,4.4-3.4,6.6-6.1V84.3c-1.6-1-3.4-1.7-5.2-2.2
		c-1.8-0.5-3.7-0.7-5.6-0.7c-4,0-7,0.9-9.1,2.8c-2.1,1.9-3.1,4.6-3.1,8.2v12.4c0,4,0.8,6.7,2.5,8.1
		C129.4,114.2,131.6,114.9,134.4,114.9z"/>
	<path id="code-4e" d="M209.8,111.3c-1.4,3.8-3.6,6.6-6.6,8.3c-3,1.7-7.2,2.6-12.7,2.6c-6.1,0-10.8-1.5-14.2-4.4
		c-3.4-2.9-5.1-7.3-5.1-13.1V92.3c0-5.9,1.8-10.4,5.3-13.3c3.6-2.9,8.2-4.4,13.9-4.4c5.8,0,10.4,1.5,13.9,4.5
		c3.5,3,5.2,7.6,5.2,13.8v7.1H179v4.8c0,3.8,1,6.6,2.9,8.3c1.9,1.7,4.8,2.6,8.6,2.6c3.7,0,6.4-0.5,8.1-1.5c1.7-1,3-2.7,3.8-5
		L209.8,111.3z M179,92.3v1.8h23V93c0-4.1-1-7.2-2.9-9.1c-1.9-1.9-4.8-2.8-8.6-2.8s-6.7,0.9-8.6,2.7C179.9,85.7,179,88.5,179,92.3z"
		/>
</g>
<g id="web">
	<path id="web-1w" d="M307.7,120.4l-10.3-31.2l-9.8,31.2h-8.8l-12.9-46.1h7.8l9.7,38.6l9.4-30.9h9.1l9.9,30.2l9.5-37.9h7.8
		l-12.9,46.1H307.7z"/>
	<path id="web-2e" d="M378.3,110.3c-1.4,3.8-3.6,6.6-6.6,8.3c-3,1.7-7.2,2.6-12.7,2.6c-6.1,0-10.8-1.5-14.2-4.4
		c-3.4-2.9-5.1-7.3-5.1-13.1V91.3c0-5.9,1.8-10.4,5.3-13.3c3.6-2.9,8.2-4.4,13.9-4.4c5.8,0,10.4,1.5,13.9,4.5
		c3.5,3,5.2,7.6,5.2,13.8v7.1h-30.7v4.8c0,3.8,1,6.6,2.9,8.3c1.9,1.7,4.8,2.6,8.6,2.6c3.7,0,6.4-0.5,8.1-1.5c1.7-1,3-2.7,3.8-5
		L378.3,110.3z M347.4,91.3v1.8h23V92c0-4.1-1-7.2-2.9-9.1c-1.9-1.9-4.8-2.8-8.6-2.8s-6.7,0.9-8.6,2.7
		C348.3,84.7,347.4,87.5,347.4,91.3z"/>
	<path id="web-3b" d="M412,121.2c-2.5,0-5.4-0.4-8.7-1.2c-3.4-0.8-6.6-2.2-9.9-4.2V59h7.7v23h2.3c1.3-2.7,3.1-4.7,5.5-6.2
		c2.3-1.5,5-2.2,8-2.2c4.5,0,8.1,1.5,10.9,4.6c2.7,3,4.1,7.4,4.1,12.9v12.5c0,6.3-2.1,10.8-6.3,13.5
		C421.3,119.8,416.8,121.2,412,121.2z M412,114.4c3.2,0,6.1-0.8,8.5-2.3c2.5-1.5,3.7-4.4,3.7-8.7V91.2c0-4-0.8-6.7-2.5-8.1
		c-1.7-1.4-3.9-2.2-6.7-2.2c-2.6,0-5,0.7-7.2,2c-2.2,1.3-4.4,3.4-6.6,6.1v22.6c1.5,0.9,3.2,1.6,4.9,2.2
		C407.8,114.2,409.8,114.4,412,114.4z"/>
</g>
<g id="development">
	<path id="development-1d" d="M238.6,161.3v-2.5h2.8v-17.3h-2.8V139h8.8c2.6,0,4.6,0.7,6.1,2.2c1.5,1.5,2.2,3.4,2.2,5.9v6.2
		c0,2.4-0.7,4.4-2.2,5.8s-3.5,2.2-6.1,2.2H238.6z M243.8,158.8h3.6c2,0,3.5-0.5,4.5-1.5c1-1,1.5-2.4,1.5-4v-6.2c0-1.6-0.5-3-1.5-4
		c-1-1.1-2.5-1.6-4.5-1.6h-3.6V158.8z"/>
	<path id="development-2e" d="M271.3,157.6c-0.4,1.4-1.1,2.4-2,3c-0.9,0.6-2.2,0.9-3.9,0.9c-1.9,0-3.3-0.5-4.4-1.6
		c-1-1.1-1.6-2.7-1.6-4.8v-4.5c0-2.2,0.5-3.8,1.6-4.8c1.1-1.1,2.5-1.6,4.3-1.6c1.8,0,3.2,0.5,4.3,1.6c1.1,1.1,1.6,2.8,1.6,5v2.6
		h-9.5v1.8c0,1.4,0.3,2.4,0.9,3c0.6,0.6,1.5,0.9,2.7,0.9c1.1,0,2-0.2,2.5-0.6c0.5-0.4,0.9-1,1.2-1.8L271.3,157.6z M261.8,150.7v0.7
		h7.1V151c0-1.5-0.3-2.6-0.9-3.3c-0.6-0.7-1.5-1-2.7-1s-2.1,0.3-2.7,1S261.8,149.3,261.8,150.7z"/>
	<path id="development-3v" d="M283.5,161.3h-2.7l-4.9-14.2h-2v-2.5h7.2v2.5h-2.7l3.9,11.8l3.9-11.8h-2.7v-2.5h7.1v2.5h-2
		L283.5,161.3z"/>
	<path id="development-4e" d="M304.9,157.6c-0.4,1.4-1.1,2.4-2,3c-0.9,0.6-2.2,0.9-3.9,0.9c-1.9,0-3.3-0.5-4.4-1.6
		c-1-1.1-1.6-2.7-1.6-4.8v-4.5c0-2.2,0.5-3.8,1.6-4.8c1.1-1.1,2.5-1.6,4.3-1.6c1.8,0,3.2,0.5,4.3,1.6c1.1,1.1,1.6,2.8,1.6,5v2.6
		h-9.5v1.8c0,1.4,0.3,2.4,0.9,3c0.6,0.6,1.5,0.9,2.7,0.9c1.1,0,2-0.2,2.5-0.6c0.5-0.4,0.9-1,1.2-1.8L304.9,157.6z M295.3,150.7v0.7
		h7.1V151c0-1.5-0.3-2.6-0.9-3.3c-0.6-0.7-1.5-1-2.7-1s-2.1,0.3-2.7,1S295.3,149.3,295.3,150.7z"/>
	<path id="development-5l" d="M308.5,161.3v-2.5h4.7v-17.3h-4.7V139h7.1v19.8h4.7v2.5H308.5z"/>
	<path id="development-6o" d="M330,161.6c-1.8,0-3.2-0.5-4.3-1.5c-1.1-1-1.6-2.6-1.6-4.8v-4.5c0-2.2,0.5-3.8,1.6-4.9
		c1.1-1.1,2.5-1.6,4.3-1.6c1.8,0,3.2,0.5,4.3,1.6c1.1,1.1,1.6,2.7,1.6,4.9v4.5c0,2.2-0.5,3.8-1.6,4.8
		C333.2,161.1,331.8,161.6,330,161.6z M330,159.1c1.2,0,2.1-0.3,2.7-0.9c0.6-0.6,0.9-1.6,0.9-2.9v-4.5c0-1.3-0.3-2.3-0.9-3
		c-0.6-0.6-1.5-1-2.7-1s-2.1,0.3-2.7,1c-0.6,0.6-0.9,1.6-0.9,3v4.5c0,1.4,0.3,2.3,0.9,2.9C327.9,158.8,328.8,159.1,330,159.1z"/>
	<path id="development-7p" d="M347.7,164.4v2.5h-8.5v-2.5h2.8v-17.3h-2.8v-2.5h5.2v2.8h0.7c0.4-0.9,1-1.7,1.7-2.2
		c0.7-0.5,1.6-0.8,2.4-0.8c1.4,0,2.6,0.6,3.4,1.7s1.2,2.7,1.2,4.7v4.6c0,1.9-0.5,3.4-1.6,4.5c-1.1,1.1-2.6,1.6-4.5,1.6
		c-0.6,0-1.2-0.1-1.8-0.2c-0.6-0.1-1.1-0.3-1.5-0.5v3.7H347.7z M347.7,158.8c1.3,0,2.3-0.3,2.9-0.9c0.6-0.6,0.9-1.5,0.9-2.8v-4.5
		c0-1.3-0.2-2.2-0.7-2.8c-0.5-0.6-1.2-0.9-2.2-0.9c-0.8,0-1.5,0.2-2.2,0.7c-0.7,0.5-1.4,1.2-2.1,2.2v7.9c0.5,0.4,1,0.6,1.5,0.8
		S347.1,158.8,347.7,158.8z"/>
	<path id="development-8m" d="M364.7,158.8v2.5h-7.6v-2.5h2.8v-11.7h-2.8v-2.5h5.2v2.8h0.7c0.3-1,0.7-1.7,1.4-2.3
		c0.7-0.5,1.5-0.8,2.4-0.8c0.9,0,1.6,0.3,2.2,0.8c0.6,0.5,1,1.3,1.3,2.3h1c0.3-1,0.7-1.7,1.4-2.3c0.7-0.5,1.5-0.8,2.4-0.8
		c1.2,0,2.2,0.5,2.8,1.4c0.7,0.9,1,2.2,1,3.9v9.2h2.8v2.5h-5.2V150c0-1-0.2-1.8-0.6-2.3c-0.4-0.5-0.9-0.8-1.6-0.8
		c-0.6,0-1.2,0.2-1.8,0.7c-0.6,0.5-1.3,1.2-1.9,2.2v9h2.4v2.5h-4.7V150c0-1-0.2-1.8-0.6-2.3c-0.4-0.5-0.9-0.8-1.6-0.8
		c-0.6,0-1.2,0.2-1.8,0.7c-0.6,0.5-1.3,1.2-1.9,2.2v9H364.7z"/>
	<path id="development-9e" d="M397,157.6c-0.4,1.4-1.1,2.4-2,3c-0.9,0.6-2.2,0.9-3.9,0.9c-1.9,0-3.3-0.5-4.4-1.6
		c-1-1.1-1.6-2.7-1.6-4.8v-4.5c0-2.2,0.5-3.8,1.6-4.8c1.1-1.1,2.5-1.6,4.3-1.6c1.8,0,3.2,0.5,4.3,1.6c1.1,1.1,1.6,2.8,1.6,5v2.6
		h-9.5v1.8c0,1.4,0.3,2.4,0.9,3c0.6,0.6,1.5,0.9,2.7,0.9c1.1,0,2-0.2,2.5-0.6c0.5-0.4,0.9-1,1.2-1.8L397,157.6z M387.4,150.7v0.7
		h7.1V151c0-1.5-0.3-2.6-0.9-3.3c-0.6-0.7-1.5-1-2.7-1s-2.1,0.3-2.7,1S387.4,149.3,387.4,150.7z"/>
	<path id="development-10n" d="M400.1,161.3v-2.5h2.8v-11.7h-2.8v-2.5h5.2v2.8h0.7c0.3-0.9,0.9-1.7,1.6-2.2c0.8-0.6,1.6-0.8,2.5-0.8
		c1.4,0,2.5,0.5,3.4,1.5c0.8,1,1.2,2.4,1.2,4.1v8.9h2.8v2.5h-7.6v-2.5h2.4v-8.3c0-1.2-0.3-2.1-0.8-2.7s-1.2-0.9-2-0.9
		c-0.9,0-1.7,0.3-2.4,0.8c-0.7,0.5-1.3,1.3-1.9,2.1v8.9h2.4v2.5H400.1z"/>
	<path id="development-11t" d="M428,161.5c-1.6,0-2.7-0.5-3.5-1.5c-0.8-1-1.2-2.4-1.2-4.3v-8.7h-2.8v-2.5h2.8V139h2.4v5.6h5.2v2.5
		h-5.2v8.8c0,1.1,0.2,1.9,0.7,2.4s1.1,0.8,1.8,0.8c0.3,0,0.7,0,1.2-0.1c0.4-0.1,0.9-0.2,1.3-0.4l0.5,2.4c-0.5,0.2-1.1,0.4-1.6,0.5
		C429,161.5,428.5,161.5,428,161.5z"/>
</g>
<g id="software">
	<path id="software-1s" d="M68.5,161.5c-1.8,0-3.4-0.4-4.7-1.2s-2.3-2.3-2.9-4.5l2.2-1c0.5,1.6,1.1,2.7,2,3.3c0.8,0.6,2,0.9,3.6,0.9
		c1.4,0,2.5-0.3,3.3-0.9c0.9-0.6,1.3-1.6,1.3-3c0-1.3-0.4-2.2-1.1-2.7c-0.8-0.5-2.1-0.9-4-1.3c-2.4-0.4-4.1-1.1-5.1-2
		c-1-0.9-1.5-2.3-1.5-4.1c0-1.9,0.6-3.4,1.8-4.5c1.2-1.1,2.8-1.6,4.8-1.6c1.8,0,3.3,0.4,4.5,1.1c1.2,0.7,2.1,2.1,2.7,4l-2.2,1
		c-0.4-1.3-1.1-2.3-1.9-2.8c-0.9-0.5-1.9-0.8-3.2-0.8c-1.2,0-2.2,0.3-2.9,0.8c-0.7,0.5-1.1,1.4-1.1,2.6c0,1.3,0.4,2.1,1.2,2.6
		c0.8,0.5,2.2,0.9,4.3,1.3c2.3,0.4,3.9,1.1,4.9,2c0.9,0.9,1.4,2.2,1.4,4c0,2.1-0.6,3.8-1.9,5C72.4,160.9,70.7,161.5,68.5,161.5z"/>
	<path id="software-2o" d="M85,161.6c-1.8,0-3.2-0.5-4.3-1.5c-1.1-1-1.6-2.6-1.6-4.8v-4.5c0-2.2,0.5-3.8,1.6-4.9
		c1.1-1.1,2.5-1.6,4.3-1.6c1.8,0,3.2,0.5,4.3,1.6c1.1,1.1,1.6,2.7,1.6,4.9v4.5c0,2.2-0.5,3.8-1.6,4.8
		C88.2,161.1,86.8,161.6,85,161.6z M85,159.1c1.2,0,2.1-0.3,2.7-0.9c0.6-0.6,0.9-1.6,0.9-2.9v-4.5c0-1.3-0.3-2.3-0.9-3
		c-0.6-0.6-1.5-1-2.7-1s-2.1,0.3-2.7,1c-0.6,0.6-0.9,1.6-0.9,3v4.5c0,1.4,0.3,2.3,0.9,2.9C82.9,158.8,83.8,159.1,85,159.1z"/>
	<path id="software-3f" d="M104.1,158.8v2.5h-10v-2.5H97v-11.7h-2.8v-2.5H97v-1.1c0-1.4,0.4-2.6,1.2-3.4c0.8-0.9,1.8-1.3,3.1-1.3
		c0.5,0,1,0.1,1.6,0.2c0.5,0.1,1,0.3,1.5,0.5l-0.5,2.4c-0.4-0.2-0.8-0.3-1.2-0.4c-0.4-0.1-0.8-0.2-1.2-0.2c-0.6,0-1.2,0.2-1.6,0.6
		c-0.4,0.4-0.6,0.9-0.6,1.7v1.1h4.7v2.5h-4.7v11.7H104.1z"/>
	<path id="software-4t" d="M114.9,161.5c-1.6,0-2.7-0.5-3.5-1.5c-0.8-1-1.2-2.4-1.2-4.3v-8.7h-2.8v-2.5h2.8V139h2.4v5.6h5.2v2.5
		h-5.2v8.8c0,1.1,0.2,1.9,0.7,2.4s1.1,0.8,1.8,0.8c0.3,0,0.7,0,1.2-0.1c0.4-0.1,0.9-0.2,1.3-0.4l0.5,2.4c-0.5,0.2-1.1,0.4-1.6,0.5
		C115.9,161.5,115.4,161.5,114.9,161.5z"/>
	<path id="software-5w" d="M135.2,161.3l-3.6-11.6l-3.4,11.6h-2.7l-3.8-14.2h-2v-2.5h7.2v2.5h-3l2.9,11.8l3.2-11.5h2.9l3.4,11.3
		l2.8-11.6h-3v-2.5h7.2v2.5h-2l-3.8,14.2H135.2z"/>
	<path id="software-6a" d="M151,161.6c-1.3,0-2.4-0.4-3.4-1.1c-1-0.8-1.5-2-1.5-3.6c0-1.5,0.4-2.6,1.1-3.5s1.8-1.3,3.1-1.3h5.3v-2.4
		c0-0.9-0.3-1.6-0.8-2.2s-1.4-0.9-2.5-0.9c-1.1,0-2,0.2-2.5,0.6c-0.6,0.4-1,1.2-1.3,2.5l-2-0.7c0.3-1.5,0.8-2.7,1.8-3.5
		c0.9-0.8,2.3-1.3,4.1-1.3c1.6,0,3,0.4,4.1,1.2c1.1,0.8,1.6,2.1,1.6,3.8v7.5c0,1,0.2,1.6,0.7,1.9c0.5,0.3,1.2,0.3,2.1,0.1v2.5
		c-1,0.2-1.9,0.1-2.8-0.2c-0.9-0.3-1.3-1.2-1.4-2.6h-0.5c-0.4,0.9-1.1,1.6-2.1,2.2S152.1,161.6,151,161.6z M151.3,159.2
		c0.9,0,1.7-0.2,2.4-0.5c0.7-0.3,1.4-1,1.9-1.8v-2.7h-5c-0.7,0-1.2,0.2-1.6,0.5c-0.4,0.4-0.6,1-0.6,1.9c0,0.8,0.2,1.4,0.7,1.9
		C149.5,159,150.3,159.2,151.3,159.2z"/>
	<path id="software-7r" d="M163.6,161.3v-2.5h2.8v-11.7h-2.8v-2.5h5.2v2.8h0.7c0.3-1.1,0.8-1.8,1.4-2.3c0.6-0.5,1.2-0.7,2-0.7
		c0.9,0,1.7,0.4,2.3,1.2c0.6,0.8,0.9,2,0.9,3.5v2.5h-2.3v-2.1c0-0.8-0.1-1.4-0.4-1.8s-0.7-0.6-1.2-0.6c-0.6,0-1.2,0.2-1.8,0.7
		s-1.1,1.1-1.6,2v9.2h3.6v2.5H163.6z"/>
	<path id="software-8e" d="M191.5,157.6c-0.4,1.4-1.1,2.4-2,3c-0.9,0.6-2.2,0.9-3.9,0.9c-1.9,0-3.3-0.5-4.4-1.6
		c-1-1.1-1.6-2.7-1.6-4.8v-4.5c0-2.2,0.5-3.8,1.6-4.8c1.1-1.1,2.5-1.6,4.3-1.6c1.8,0,3.2,0.5,4.3,1.6c1.1,1.1,1.6,2.8,1.6,5v2.6H182
		v1.8c0,1.4,0.3,2.4,0.9,3c0.6,0.6,1.5,0.9,2.7,0.9c1.1,0,2-0.2,2.5-0.6c0.5-0.4,0.9-1,1.2-1.8L191.5,157.6z M182,150.7v0.7h7.1V151
		c0-1.5-0.3-2.6-0.9-3.3c-0.6-0.7-1.5-1-2.7-1s-2.1,0.3-2.7,1S182,149.3,182,150.7z"/>
</g>
</svg>
